<?xml version="1.0" encoding="UTF-8"?>
<svg xmlns="http://www.w3.org/2000/svg" xmlns:xlink="http://www.w3.org/1999/xlink" width="20px" height="18px" viewBox="0 0 20 18" version="1.1">
<g id="surface1">
<path style=" stroke:none;fill-rule:nonzero;fill:rgb(36.470588%,78.823529%,88.235294%);fill-opacity:1;" d="M 3.171875 8.089844 C 3.140625 8.089844 3.132812 8.070312 3.148438 8.046875 L 3.3125 7.832031 C 3.328125 7.808594 3.367188 7.792969 3.398438 7.792969 L 6.199219 7.792969 C 6.230469 7.792969 6.238281 7.816406 6.222656 7.839844 L 6.089844 8.046875 C 6.074219 8.070312 6.035156 8.097656 6.011719 8.097656 Z M 3.171875 8.089844 "/>
<path style=" stroke:none;fill-rule:nonzero;fill:rgb(36.470588%,78.823529%,88.235294%);fill-opacity:1;" d="M 1.988281 8.824219 C 1.957031 8.824219 1.949219 8.808594 1.964844 8.785156 L 2.128906 8.566406 C 2.144531 8.542969 2.183594 8.527344 2.214844 8.527344 L 5.792969 8.527344 C 5.824219 8.527344 5.839844 8.550781 5.832031 8.574219 L 5.769531 8.769531 C 5.761719 8.800781 5.730469 8.816406 5.699219 8.816406 Z M 1.988281 8.824219 "/>
<path style=" stroke:none;fill-rule:nonzero;fill:rgb(36.470588%,78.823529%,88.235294%);fill-opacity:1;" d="M 3.886719 9.558594 C 3.855469 9.558594 3.847656 9.535156 3.863281 9.511719 L 3.972656 9.3125 C 3.988281 9.289062 4.019531 9.265625 4.050781 9.265625 L 5.621094 9.265625 C 5.652344 9.265625 5.667969 9.289062 5.667969 9.320312 L 5.652344 9.511719 C 5.652344 9.542969 5.621094 9.566406 5.597656 9.566406 Z M 3.886719 9.558594 "/>
<path style=" stroke:none;fill-rule:nonzero;fill:rgb(36.470588%,78.823529%,88.235294%);fill-opacity:1;" d="M 12.027344 7.945312 C 11.535156 8.070312 11.195312 8.167969 10.710938 8.296875 C 10.59375 8.328125 10.585938 8.335938 10.480469 8.214844 C 10.363281 8.078125 10.277344 7.992188 10.113281 7.910156 C 9.621094 7.664062 9.140625 7.734375 8.695312 8.03125 C 8.160156 8.382812 7.886719 8.902344 7.894531 9.550781 C 7.902344 10.191406 8.332031 10.71875 8.953125 10.808594 C 9.484375 10.878906 9.933594 10.6875 10.285156 10.28125 C 10.355469 10.191406 10.417969 10.097656 10.496094 9.984375 C 10.214844 9.984375 9.863281 9.984375 8.984375 9.984375 C 8.820312 9.984375 8.78125 9.878906 8.835938 9.742188 C 8.9375 9.496094 9.125 9.078125 9.234375 8.871094 C 9.257812 8.824219 9.3125 8.742188 9.429688 8.742188 C 9.832031 8.742188 11.304688 8.742188 12.285156 8.742188 C 12.269531 8.960938 12.269531 9.175781 12.238281 9.390625 C 12.152344 9.96875 11.941406 10.496094 11.597656 10.960938 C 11.03125 11.71875 10.292969 12.191406 9.359375 12.320312 C 8.59375 12.425781 7.878906 12.273438 7.25 11.792969 C 6.671875 11.34375 6.339844 10.753906 6.253906 10.015625 C 6.152344 9.144531 6.402344 8.359375 6.921875 7.671875 C 7.476562 6.929688 8.214844 6.457031 9.117188 6.289062 C 9.855469 6.152344 10.5625 6.238281 11.195312 6.679688 C 11.613281 6.960938 11.910156 7.34375 12.105469 7.808594 C 12.152344 7.878906 12.121094 7.921875 12.027344 7.945312 Z M 12.027344 7.945312 "/>
<path style=" stroke:none;fill-rule:nonzero;fill:rgb(36.470588%,78.823529%,88.235294%);fill-opacity:1;" d="M 14.625 12.367188 C 13.910156 12.351562 13.257812 12.144531 12.710938 11.664062 C 12.246094 11.257812 11.957031 10.734375 11.863281 10.121094 C 11.722656 9.214844 11.964844 8.414062 12.496094 7.703125 C 13.070312 6.9375 13.761719 6.535156 14.695312 6.367188 C 15.492188 6.222656 16.246094 6.304688 16.929688 6.777344 C 17.550781 7.207031 17.933594 7.792969 18.035156 8.558594 C 18.167969 9.640625 17.863281 10.519531 17.132812 11.273438 C 16.617188 11.808594 15.980469 12.144531 15.25 12.296875 C 15.039062 12.335938 14.828125 12.34375 14.625 12.367188 Z M 16.488281 9.136719 C 16.480469 9.03125 16.480469 8.953125 16.464844 8.871094 C 16.324219 8.078125 15.613281 7.632812 14.867188 7.808594 C 14.136719 7.976562 13.667969 8.449219 13.492188 9.199219 C 13.351562 9.824219 13.652344 10.457031 14.214844 10.710938 C 14.648438 10.902344 15.078125 10.878906 15.492188 10.664062 C 16.113281 10.335938 16.449219 9.824219 16.488281 9.136719 Z M 16.488281 9.136719 "/>
</g>
</svg>
